{
	"asset":{
		"generator":"Khronos glTF Blender I/O v4.2.57",
		"version":"2.0"
	},
	"extensionsUsed":[
		"KHR_materials_emissive_strength"
	],
	"scene":0,
	"scenes":[
		{
			"name":"MAIN",
			"nodes":[
				0
			]
		}
	],
	"nodes":[
		{
			"mesh":0,
			"name":"3O",
			"rotation":[
				0.5,
				0.5,
				-0.5,
				0.5
			],
			"translation":[
				0.06614607572555542,
				0.6502315998077393,
				-0.005713304504752159
			]
		}
	],
	"materials":[
		{
			"doubleSided":true,
			"emissiveFactor":[
				1,
				1,
				1
			],
			"extensions":{
				"KHR_materials_emissive_strength":{
					"emissiveStrength":191.79998779296875
				}
			},
			"name":"Material.002",
			"pbrMetallicRoughness":{
				"baseColorFactor":[
					0.800000011920929,
					0.800000011920929,
					0.800000011920929,
					1
				],
				"metallicFactor":0,
				"roughnessFactor":0.5
			}
		}
	],
	"meshes":[
		{
			"name":"Text.002",
			"primitives":[
				{
					"attributes":{
						"POSITION":0,
						"NORMAL":1,
						"TEXCOORD_0":2
					},
					"indices":3,
					"material":0
				}
			]
		}
	],
	"accessors":[
		{
			"bufferView":0,
			"componentType":5126,
			"count":580,
			"max":[
				0.36656561493873596,
				0,
				0.35037243366241455
			],
			"min":[
				-0.3664345443248749,
				-0.12226413935422897,
				-0.34962761402130127
			],
			"type":"VEC3"
		},
		{
			"bufferView":1,
			"componentType":5126,
			"count":580,
			"type":"VEC3"
		},
		{
			"bufferView":2,
			"componentType":5126,
			"count":580,
			"type":"VEC2"
		},
		{
			"bufferView":3,
			"componentType":5123,
			"count":1152,
			"type":"SCALAR"
		}
	],
	"bufferViews":[
		{
			"buffer":0,
			"byteLength":6960,
			"byteOffset":0,
			"target":34962
		},
		{
			"buffer":0,
			"byteLength":6960,
			"byteOffset":6960,
			"target":34962
		},
		{
			"buffer":0,
			"byteLength":4640,
			"byteOffset":13920,
			"target":34962
		},
		{
			"buffer":0,
			"byteLength":2304,
			"byteOffset":18560,
			"target":34963
		}
	],
	"buffers":[
		{
			"byteLength":20864,
			"uri":"O.bin"
		}
	]
}
