{
	"asset":{
		"generator":"Khronos glTF Blender I/O v4.1.63",
		"version":"2.0"
	},
	"scene":0,
	"scenes":[
		{
			"name":"Scene",
			"nodes":[
				0
			]
		}
	],
	"nodes":[
		{
			"mesh":0,
			"name":"o",
			"rotation":[
				0.7071068286895752,
				0,
				0,
				0.7071068286895752
			],
			"translation":[
				0.005807280540466309,
				-0.01581176370382309,
				-0.0034891366958618164
			]
		}
	],
	"meshes":[
		{
			"name":"Text.006",
			"primitives":[
				{
					"attributes":{
						"POSITION":0,
						"NORMAL":1,
						"TEXCOORD_0":2
					},
					"indices":3
				}
			]
		}
	],
	"accessors":[
		{
			"bufferView":0,
			"componentType":5126,
			"count":1080,
			"max":[
				0.3336998224258423,
				0.011591121554374695,
				0.33436843752861023
			],
			"min":[
				-0.33427274227142334,
				-0.12516875565052032,
				-0.33436867594718933
			],
			"type":"VEC3"
		},
		{
			"bufferView":1,
			"componentType":5126,
			"count":1080,
			"type":"VEC3"
		},
		{
			"bufferView":2,
			"componentType":5126,
			"count":1080,
			"type":"VEC2"
		},
		{
			"bufferView":3,
			"componentType":5123,
			"count":2160,
			"type":"SCALAR"
		}
	],
	"bufferViews":[
		{
			"buffer":0,
			"byteLength":12960,
			"byteOffset":0,
			"target":34962
		},
		{
			"buffer":0,
			"byteLength":12960,
			"byteOffset":12960,
			"target":34962
		},
		{
			"buffer":0,
			"byteLength":8640,
			"byteOffset":25920,
			"target":34962
		},
		{
			"buffer":0,
			"byteLength":4320,
			"byteOffset":34560,
			"target":34963
		}
	],
	"buffers":[
		{
			"byteLength":38880,
			"uri":"O_Logo.bin"
		}
	]
}
