{
	"asset":{
		"generator":"Khronos glTF Blender I/O v4.1.63",
		"version":"2.0"
	},
	"scene":0,
	"scenes":[
		{
			"name":"Scene",
			"nodes":[
				0
			]
		}
	],
	"nodes":[
		{
			"mesh":0,
			"name":"S",
			"rotation":[
				0.7071068286895752,
				0,
				0,
				0.7071068286895752
			],
			"translation":[
				-0.5832038521766663,
				-0.06059708446264267,
				-0.002881496213376522
			]
		}
	],
	"meshes":[
		{
			"name":"Text.003",
			"primitives":[
				{
					"attributes":{
						"POSITION":0,
						"NORMAL":1,
						"TEXCOORD_0":2
					},
					"indices":3
				}
			]
		}
	],
	"accessors":[
		{
			"bufferView":0,
			"componentType":5126,
			"count":474,
			"max":[
				0.11577659845352173,
				0,
				0.31737250089645386
			],
			"min":[
				-0.12817418575286865,
				-0.11357762664556503,
				-0.32241228222846985
			],
			"type":"VEC3"
		},
		{
			"bufferView":1,
			"componentType":5126,
			"count":474,
			"type":"VEC3"
		},
		{
			"bufferView":2,
			"componentType":5126,
			"count":474,
			"type":"VEC2"
		},
		{
			"bufferView":3,
			"componentType":5123,
			"count":936,
			"type":"SCALAR"
		}
	],
	"bufferViews":[
		{
			"buffer":0,
			"byteLength":5688,
			"byteOffset":0,
			"target":34962
		},
		{
			"buffer":0,
			"byteLength":5688,
			"byteOffset":5688,
			"target":34962
		},
		{
			"buffer":0,
			"byteLength":3792,
			"byteOffset":11376,
			"target":34962
		},
		{
			"buffer":0,
			"byteLength":1872,
			"byteOffset":15168,
			"target":34963
		}
	],
	"buffers":[
		{
			"byteLength":17040,
			"uri":"S_Logo.bin"
		}
	]
}
